<svg xmlns="http://www.w3.org/2000/svg" viewBox="0 0 800 640" role="img" aria-labelledby="title desc">
  <title id="title">Coarse hair-card input placeholder</title>
  <desc id="desc">A technical illustration of loose coarse ribbon cards around a head form.</desc>
  <rect width="800" height="640" fill="#e7ece9"/>
  <g fill="none" stroke="#cad3ce" stroke-width="1" opacity=".75">
    <path d="M0 80h800M0 160h800M0 240h800M0 320h800M0 400h800M0 480h800M0 560h800"/>
    <path d="M80 0v640M160 0v640M240 0v640M320 0v640M400 0v640M480 0v640M560 0v640M640 0v640M720 0v640"/>
  </g>
  <ellipse cx="405" cy="330" rx="168" ry="205" fill="#d5ddd8" stroke="#7d8c86" stroke-width="2"/>
  <path d="M354 473c29 24 73 26 104 0" fill="none" stroke="#91a09a" stroke-width="2"/>
  <g fill="#9eaba6" fill-opacity=".72" stroke="#52625c" stroke-width="2">
    <path d="M365 118C277 142 214 246 237 445l53-21c-16-138 17-240 93-297z"/>
    <path d="M401 104c-69 58-99 165-79 354l54-9c-18-146-2-261 47-337z"/>
    <path d="M438 109c-42 68-43 191-9 362l53-15c-37-144-43-254-18-335z"/>
    <path d="M476 127c-9 91 25 195 79 308l41-34c-60-108-85-191-89-261z"/>
    <path d="M321 137c-85 64-123 179-115 308l45-4c0-121 36-213 100-277z"/>
  </g>
  <g fill="#51605b" font-family="Arial,sans-serif" font-size="12">
    <text x="34" y="45" letter-spacing="2">COARSE EXPLICIT CARDS</text>
    <text x="34" y="606" fill="#71807a">PLACEHOLDER · REPLACE WITH MATCHED-VIEW RENDER</text>
  </g>
  <g stroke="#c77d2d" stroke-width="2" fill="none">
    <path d="m226 214-22-16m22 16-11 26"/><circle cx="226" cy="214" r="4" fill="#c77d2d"/>
    <path d="m548 234 27-8m-27 8 15 24"/><circle cx="548" cy="234" r="4" fill="#c77d2d"/>
  </g>
</svg>
